<?xml version="1.0" encoding="UTF-8" standalone="no"?>
<!-- Uploaded to: SVG Repo, www.svgrepo.com, Generator: SVG Repo Mixer Tools -->

<svg
   version="1.0"
   id="Layer_1"
   width="800px"
   height="800px"
   viewBox="0 0 64 64"
   enable-background="new 0 0 64 64"
   xml:space="preserve"
   sodipodi:docname="gare_location_15_fermee.svg"
   inkscape:version="1.3.2 (091e20e, 2023-11-25, custom)"
   inkscape:export-filename="..\..\gare_location_100_fermee.png"
   inkscape:export-xdpi="96"
   inkscape:export-ydpi="96"
   xmlns:inkscape="http://www.inkscape.org/namespaces/inkscape"
   xmlns:sodipodi="http://sodipodi.sourceforge.net/DTD/sodipodi-0.dtd"
   xmlns="http://www.w3.org/2000/svg"
   xmlns:svg="http://www.w3.org/2000/svg"><defs
   id="defs3">
	
	
	
</defs><sodipodi:namedview
   id="namedview3"
   pagecolor="#ffffff"
   bordercolor="#000000"
   borderopacity="0.25"
   inkscape:showpageshadow="2"
   inkscape:pageopacity="0.0"
   inkscape:pagecheckerboard="0"
   inkscape:deskcolor="#d1d1d1"
   inkscape:zoom="0.93625"
   inkscape:cx="400"
   inkscape:cy="398.93191"
   inkscape:window-width="1920"
   inkscape:window-height="1017"
   inkscape:window-x="1912"
   inkscape:window-y="-8"
   inkscape:window-maximized="1"
   inkscape:current-layer="Layer_1" />

<path
   style="display:inline;fill:#fe0818;fill-opacity:1;stroke:none;stroke-width:0.048;stroke-dasharray:none;stroke-opacity:1"
   d="m 29.576502,56.37789 c -2.526299,-3.475516 -3.072335,-4.224789 -3.50565,-4.810467 -0.173851,-0.23498 -2.210214,-3.022697 -4.525251,-6.194926 -2.315038,-3.17223 -4.314813,-5.903466 -4.443945,-6.069412 -0.474473,-0.609743 -1.870129,-2.719999 -2.513032,-3.799747 -1.307778,-2.196396 -2.465206,-4.793416 -3.076616,-6.903262 -0.945131,-3.261452 -0.783634,-7.373701 0.431455,-10.986262 2.548442,-7.576728 9.019902,-12.9987176 16.906737,-14.1649874 1.414138,-0.2091163 4.546058,-0.2108868 5.981309,-0.00338 9.121274,1.3187349 16.367549,8.5084044 17.731167,17.5926554 0.637709,4.248334 -0.01665,7.715498 -2.325348,12.321066 -1.268764,2.531024 -2.222911,3.992935 -5.776327,8.850274 -1.530526,2.09215 -3.073619,4.202518 -3.429097,4.689706 -0.355478,0.487188 -0.934708,1.279652 -1.287178,1.761031 -0.35247,0.481379 -2.255808,3.089461 -4.22964,5.795739 -1.973831,2.706278 -3.627236,4.920294 -3.674232,4.920036 -0.047,-2.4e-4 -1.065954,-1.349386 -2.264352,-2.998064 z"
   id="path2" /><path
   style="display:inline;fill:#ffffff;fill-opacity:1;stroke:none;stroke-width:0;stroke-dasharray:none;stroke-opacity:1"
   d="M 31.154945,63.509192 C 30.369673,63.2013 30.249624,63.078941 29.002801,61.315624 27.643511,59.393248 25.6633,56.595709 24.61778,55.120696 c -0.499675,-0.70494 -1.288354,-1.820026 -1.752619,-2.47797 -0.464265,-0.657944 -1.132619,-1.6 -1.485234,-2.093458 C 21.027314,50.05581 20.522738,49.344462 20.258648,48.968494 19.994558,48.592526 19.207334,47.477439 18.509262,46.490523 17.81119,45.503608 17.0232,44.38852 16.758174,44.012552 16.493148,43.636584 15.622357,42.406144 14.823082,41.27824 12.641248,38.199327 11.882807,36.956629 10.651076,34.442459 9.4432416,31.977067 8.6633584,29.5935 8.2389328,27.070197 8.0471736,25.930148 8.0232568,22.500389 8.1982824,21.240857 9.116076,14.636178 12.33977,9.0779877 17.574519,5.074651 c 2.587733,-1.9789997 6.360993,-3.6816807 9.518959,-4.29542429 2.036655,-0.39581929 3.254707,-0.4970557 5.3859,-0.44764038 2.757729,0.0639426 4.471424,0.35417421 6.963952,1.17941557 3.70766,1.2275549 6.971656,3.2852703 9.707291,6.1197488 3.462081,3.5871743 5.611723,8.0052003 6.447018,13.2501613 0.189143,1.187666 0.257828,4.047069 0.125946,5.243201 -0.482567,4.376717 -2.291884,8.968392 -5.079127,12.889775 -2.016954,2.837661 -3.853396,5.430423 -6.929763,9.783712 -0.664217,0.939919 -1.644418,2.324164 -2.178223,3.0761 -0.533803,0.751936 -1.187608,1.674767 -1.452899,2.050735 -0.265291,0.375968 -1.053497,1.491055 -1.75157,2.477971 -1.714474,2.423877 -2.068027,2.925259 -3.252881,4.612997 -1.217722,1.734556 -1.712191,2.265389 -2.295264,2.464062 -0.479957,0.163538 -1.251707,0.177622 -1.628913,0.02973 z m 2.542837,-6.530017 c 3.867604,-5.25849 12.54222,-17.153483 13.4442,-18.435247 2.993648,-4.254143 4.882409,-8.355988 5.508383,-11.962617 0.469327,-2.704097 0.122537,-6.193247 -0.916737,-9.223548 C 49.562444,11.027054 44.321487,6.007599 37.862555,4.0729294 34.502627,3.0665167 30.297059,2.9819984 26.839858,3.8514089 21.46839,5.2022157 16.744296,8.7254813 13.923271,13.484699 c -2.121017,3.578267 -3.120956,7.623282 -2.881071,11.654689 0.148237,2.491199 0.92417,5.061918 2.446922,8.106809 1.327068,2.653603 2.034633,3.718497 6.813004,10.253672 2.027381,2.772763 4.373161,5.983444 5.212844,7.134847 3.709642,5.086792 6.377153,8.71562 6.406755,8.71562 0.01764,0 0.816865,-1.067023 1.776057,-2.371161 z"
   id="path3"
   inkscape:label="path3" /><path
   class="st0"
   d="M 42.714905,28.757143 V 13.292628 c 0,-2.932374 -2.376384,-5.3092902 -5.30929,-5.3092902 H 26.569744 c -2.931784,0 -5.30929,2.3769162 -5.30929,5.3092902 v 15.464515 c 0,2.223016 1.617753,4.075253 3.737854,4.443964 l -3.329679,5.030556 h 2.960437 l 1.366609,-2.065452 h 11.985131 l 1.366551,2.065452 h 2.959905 l -3.329088,-5.030556 c 2.119509,-0.369183 3.736731,-2.220948 3.736731,-4.443964 z M 27.390289,10.367048 h 9.194782 v 1.532503 h -9.194782 z m -2.766481,4.953045 c 0,-0.666645 0.539802,-1.207452 1.206447,-1.207452 h 12.315322 c 0.666172,0 1.20692,0.540807 1.20692,1.207452 v 5.092943 c 0,0.666645 -0.540807,1.20692 -1.20692,1.20692 H 25.830314 c -0.666645,0 -1.206447,-0.540275 -1.206447,-1.20692 v -5.092943 z m 1.149259,14.758938 c -0.777359,0 -1.407611,-0.630253 -1.407611,-1.407138 0,-0.77789 0.630252,-1.408202 1.407611,-1.408202 0.777417,0 1.407669,0.630253 1.407669,1.408202 0,0.776885 -0.630252,1.407138 -1.407669,1.407138 z m 1.111271,4.744497 1.028561,-1.554835 h 8.150093 l 1.028561,1.554835 z m 11.318486,-4.744497 c -0.777358,0 -1.40761,-0.630253 -1.40761,-1.407138 0,-0.77789 0.630252,-1.408202 1.40761,-1.408202 0.777418,0 1.40767,0.630253 1.40767,1.408202 0,0.776885 -0.630252,1.407138 -1.40767,1.407138 z"
   id="path1"
   style="fill:#ffffff;fill-opacity:1;stroke:#fe0818;stroke-width:0;stroke-dasharray:none;stroke-opacity:1" /></svg>
