<?xml version="1.0" encoding="UTF-8" standalone="no"?>
<!-- Uploaded to: SVG Repo, www.svgrepo.com, Generator: SVG Repo Mixer Tools -->

<svg
   width="800px"
   height="800px"
   viewBox="0 0 24 24"
   fill="none"
   version="1.1"
   id="svg3"
   sodipodi:docname="ite_circle_10_mauvaisetat.svg"
   inkscape:version="1.3.2 (091e20e, 2023-11-25, custom)"
   xmlns:inkscape="http://www.inkscape.org/namespaces/inkscape"
   xmlns:sodipodi="http://sodipodi.sourceforge.net/DTD/sodipodi-0.dtd"
   xmlns="http://www.w3.org/2000/svg"
   xmlns:svg="http://www.w3.org/2000/svg">
  <defs
     id="defs3" />
  <sodipodi:namedview
     id="namedview3"
     pagecolor="#ffffff"
     bordercolor="#000000"
     borderopacity="0.25"
     inkscape:showpageshadow="2"
     inkscape:pageopacity="0.0"
     inkscape:pagecheckerboard="0"
     inkscape:deskcolor="#d1d1d1"
     inkscape:zoom="0.93625"
     inkscape:cx="400"
     inkscape:cy="400"
     inkscape:window-width="1680"
     inkscape:window-height="987"
     inkscape:window-x="1912"
     inkscape:window-y="18"
     inkscape:window-maximized="1"
     inkscape:current-layer="svg3" />
  <circle
     style="fill:#fe0818;fill-opacity:1;stroke:#ffffff;stroke-width:1.08696;stroke-dasharray:none;stroke-opacity:1;paint-order:normal"
     id="path3"
     cx="11.980212"
     cy="12"
     r="11.310666" />
  <path
     d="M 5.4458534,7.5887336 C 5.2509971,7.6517195 5.1464331,7.7152797 4.9812913,7.8710543 4.7968849,8.045011 4.6648377,8.2879185 4.6289595,8.519139 4.6150415,8.608835 4.6066015,9.5314856 4.6065135,10.976934 l -1.767e-4,2.314194 h -0.121509 c -0.1191009,0 -0.121509,-0.0013 -0.121509,-0.06349 0,-0.03493 -0.014338,-0.104144 -0.031857,-0.15383 -0.078075,-0.221279 -0.259234,-0.356927 -0.4995787,-0.374137 -0.1900843,-0.01359 -0.3201652,0.03073 -0.4550844,0.155112 -0.1555757,0.143402 -0.1843843,0.254196 -0.1843843,0.709325 0,0.484335 0.022954,0.575511 0.1843402,0.732699 0.069614,0.0678 0.1492572,0.121487 0.204842,0.138079 0.061417,0.01834 0.2709872,0.02715 0.6456325,0.02715 h 0.5547217 l 0.03199,0.06076 c 0.087509,0.166092 0.4257454,0.418764 0.6310515,0.471388 l 0.1066848,0.02733 0.058788,0.178684 c 0.1446178,0.439465 0.5054332,0.82403 0.936525,0.998142 0.2542852,0.102708 0.3891823,0.125176 0.6874758,0.114461 0.2109175,-0.0076 0.3113061,-0.02185 0.4206421,-0.05976 0.20102,-0.06972 0.3503877,-0.145944 0.4835837,-0.246752 l 0.1143068,-0.08651 0.1166707,0.08808 c 0.146098,0.110308 0.4096621,0.233186 0.5926104,0.276333 0.2064548,0.04867 0.5585658,0.0433 0.7743879,-0.0118 C 10.276476,16.134549 10.718393,15.72175 10.9009,15.184813 l 0.03917,-0.115235 h 1.099281 1.099281 l 0.06091,0.165694 c 0.154404,0.420112 0.437211,0.730225 0.848132,0.929942 0.254683,0.123784 0.448855,0.160723 0.77388,0.147202 0.357988,-0.01487 0.62248,-0.105867 0.891103,-0.306534 l 0.115301,-0.08612 0.11455,0.08669 c 0.385205,0.291555 0.932703,0.390927 1.40323,0.254661 0.277438,-0.08035 0.471123,-0.191322 0.68414,-0.392011 0.2403,-0.226338 0.39581,-0.476845 0.470725,-0.758127 0.02037,-0.07655 0.03519,-0.09334 0.0925,-0.104807 0.207383,-0.04147 0.585983,-0.312212 0.673646,-0.48175 l 0.03226,-0.06239 0.568331,-2.21e-4 c 0.550214,-1.98e-4 0.571865,-0.0018 0.680008,-0.05223 0.06184,-0.02879 0.148484,-0.09498 0.194127,-0.148308 0.130479,-0.15246 0.152527,-0.265199 0.143536,-0.7344 -0.0072,-0.375198 -0.01125,-0.408447 -0.06224,-0.508438 -0.132357,-0.259499 -0.421438,-0.381538 -0.712441,-0.300701 -0.196049,0.05444 -0.392695,0.29858 -0.392695,0.487538 v 0.08585 H 19.596878 19.47612 L 19.46982,10.899601 19.46352,8.5080828 19.41423,8.3628906 C 19.290713,7.9992794 18.988907,7.6987987 18.638364,7.5904569 c -0.138233,-0.042727 -0.240411,-0.043368 -6.60567,-0.042197 -6.1343043,0.0011 -6.4715028,0.00317 -6.5867817,0.040474 m 1.496814,6.6648561 c -0.063516,0.03305 -0.1288658,0.09084 -0.1656941,0.146474 -0.053839,0.08137 -0.060799,0.112473 -0.060799,0.271848 0,0.207449 0.037822,0.284442 0.1953422,0.397666 0.1267229,0.09111 0.3337742,0.103681 0.477199,0.02901 0.2635419,-0.137239 0.345439,-0.476868 0.1708195,-0.70842 -0.1443306,-0.191387 -0.4019959,-0.24843 -0.616868,-0.136576 m 2.1700181,-0.0069 C 8.7663771,14.42193 8.7669515,14.920095 9.113716,15.097255 9.4658933,15.277199 9.8774553,14.965649 9.7973477,14.579759 9.7318437,14.264277 9.3985331,14.102118 9.112744,14.246692 m 5.413204,-4.42e-4 c -0.120847,0.06402 -0.231928,0.219423 -0.251811,0.35231 -0.0317,0.211934 0.116427,0.463391 0.310753,0.527526 0.130501,0.04308 0.324385,0.0171 0.432727,-0.05799 0.136576,-0.09467 0.222406,-0.269949 0.20756,-0.423868 -0.01458,-0.15129 -0.09054,-0.285369 -0.20862,-0.368261 -0.07783,-0.05463 -0.121443,-0.06802 -0.243018,-0.0745 -0.123277,-0.0066 -0.164877,9.58e-4 -0.247591,0.04478 m 2.176115,-0.0074 c -0.374137,0.173228 -0.364306,0.714981 0.01586,0.873782 0.313095,0.130788 0.65796,-0.100189 0.65796,-0.44068 0,-0.348001 -0.359115,-0.578824 -0.673823,-0.433102"
     stroke="none"
     fill="#000000"
     fill-rule="evenodd"
     id="path1-9"
     style="stroke-width:0;stroke:#000000;stroke-opacity:1;stroke-dasharray:none;fill:#ffffff;fill-opacity:1" />
</svg>
