<?xml version="1.0" encoding="UTF-8" standalone="no"?>
<!-- Created with Inkscape (http://www.inkscape.org/) -->

<svg
   width="800"
   height="800"
   viewBox="0 0 211.66666 211.66667"
   version="1.1"
   id="svg1"
   inkscape:version="1.3.2 (091e20e, 2023-11-25, custom)"
   sodipodi:docname="ecole_location_10.svg"
   xmlns:inkscape="http://www.inkscape.org/namespaces/inkscape"
   xmlns:sodipodi="http://sodipodi.sourceforge.net/DTD/sodipodi-0.dtd"
   xmlns="http://www.w3.org/2000/svg"
   xmlns:svg="http://www.w3.org/2000/svg">
  <sodipodi:namedview
     id="namedview1"
     pagecolor="#ffffff"
     bordercolor="#000000"
     borderopacity="0.25"
     inkscape:showpageshadow="2"
     inkscape:pageopacity="0.0"
     inkscape:pagecheckerboard="0"
     inkscape:deskcolor="#d1d1d1"
     inkscape:document-units="mm"
     inkscape:zoom="0.94363241"
     inkscape:cx="398.99011"
     inkscape:cy="393.69144"
     inkscape:window-width="1920"
     inkscape:window-height="1017"
     inkscape:window-x="1912"
     inkscape:window-y="-8"
     inkscape:window-maximized="1"
     inkscape:current-layer="layer1" />
  <defs
     id="defs1" />
  <g
     inkscape:label="Calque 1"
     inkscape:groupmode="layer"
     id="layer1">
    <path
       style="display:inline;fill:#d7dbdd;fill-opacity:1;stroke:none;stroke-width:0;stroke-dasharray:none;stroke-opacity:1"
       d="M 95.891918,186.42201 C 87.536709,174.92746 85.730809,172.4494 84.297709,170.51239 83.722732,169.73524 76.987888,160.51545 69.331383,150.02396 61.674878,139.53247 55.061038,130.49948 54.633961,129.95065 53.064741,127.93405 48.4489,120.95482 46.322631,117.38377 41.997429,110.11965 38.169474,101.53055 36.147364,94.552703 33.02154,83.766174 33.555657,70.165768 37.574313,58.217972 c 8.42844,-25.05845 29.831446,-42.99055 55.915511,-46.847744 4.676965,-0.691609 15.035126,-0.697464 19.781926,-0.01118 30.16671,4.361441 54.13226,28.139774 58.64214,58.184043 2.10909,14.050481 -0.0551,25.517359 -7.6906,40.749279 -4.19618,8.37084 -7.35182,13.2058 -19.104,29.27044 -5.0619,6.91935 -10.16536,13.89895 -11.34103,15.51023 -1.17566,1.61127 -3.09135,4.23218 -4.25707,5.82424 -1.16572,1.59206 -7.46061,10.21775 -13.98865,19.1682 -6.52804,8.95045 -11.99633,16.27285 -12.15176,16.27199 -0.15543,-7.9e-4 -3.525417,-4.46281 -7.488862,-9.91547 z"
       id="path2" />
    <path
       style="display:inline;fill:#546e7a;fill-opacity:1;stroke:none;stroke-width:0;stroke-dasharray:none;stroke-opacity:1"
       d="m 100.87992,210.27439 c -2.597128,-1.01828 -2.994158,-1.42296 -7.117768,-7.25477 -4.49557,-6.35785 -11.04471,-15.61013 -14.50255,-20.48843 -1.65257,-2.33144 -4.26096,-6.01936 -5.79642,-8.19537 -1.53546,-2.17601 -3.7459,-5.29167 -4.9121,-6.92367 -1.1662,-1.63202 -2.83498,-3.98465 -3.7084,-5.22809 -0.87342,-1.24343 -3.477,-4.93135 -5.78573,-8.19537 -2.30873,-3.26402 -4.91484,-6.95194 -5.79135,-8.19537 -0.87652,-1.24344 -3.75648,-5.31286 -6.39992,-9.04317 -7.21596,-10.18286 -9.72435,-14.29283 -13.79804,-22.60792 -3.99466,-8.15377 -6.57396,-16.036908 -7.97766,-24.382206 -0.63421,-3.77048 -0.71331,-15.11369 -0.13444,-19.27933 3.03541,-21.8436 13.6971,-40.22616 31.00995,-53.46636 8.55838,-6.54513 21.03765,-12.1763884 31.48197,-14.2062184 6.73581,-1.30909 10.76426,-1.64391 17.812748,-1.48048 9.12062,0.21148 14.78831,1.17136 23.03182,3.90067 12.26232,4.059879 23.05731,10.8653484 32.10485,20.2397984 11.45011,11.86383 18.5596,26.47553 21.32217,43.82215 0.62555,3.92795 0.85271,13.38483 0.41654,17.34079 -1.59599,14.475066 -7.57993,29.661076 -16.79816,42.630236 -6.67065,9.38497 -12.7443,17.95999 -22.91875,32.35759 -2.19676,3.10858 -5.43857,7.68669 -7.20402,10.17356 -1.76544,2.48687 -3.92776,5.53894 -4.80516,6.78238 -0.87739,1.24343 -3.48422,4.93135 -5.79295,8.19537 -5.67027,8.01647 -6.83957,9.67468 -10.75822,15.25653 -4.02737,5.73668 -5.66272,7.4923 -7.59111,8.14937 -1.58736,0.54087 -4.13976,0.58745 -5.3873,0.0983 z m 8.40991,-21.59667 c 12.7913,-17.39136 41.48078,-56.73157 44.46389,-60.97074 9.90087,-14.06969 16.14755,-27.63569 18.21783,-39.563846 1.5522,-8.94324 0.40527,-20.48288 -3.03192,-30.50497 -7.18073,-20.9375 -24.51411,-37.5383 -45.87568,-43.93682 -11.11226,-3.3285 -25.021308,-3.60802 -36.455278,-0.73263 -17.76502,4.46751 -33.38897,16.11998 -42.71893,31.8601 -7.01482,11.83437 -10.32191,25.21242 -9.52854,38.54546 0.49026,8.23912 3.0565,16.741226 8.09269,26.811566 4.389,8.77624 6.72912,12.29815 22.53259,33.91189 6.70514,9.17033 14.46332,19.78899 17.24039,23.59701 12.26887,16.82351 21.091118,28.82511 21.189018,28.82511 0.0583,0 2.70161,-3.52896 5.87394,-7.84213 z"
       id="path3" />
    <g
       id="g5"
       transform="matrix(0.57211722,0,0,0.57211722,6.8800888,-39.06953)"
       style="fill:#546e7a;fill-opacity:1">
      <path
         d="m 158.337,132.435 c -9.102,1.81 -15.013,10.653 -13.204,19.754 1.809,9.101 10.653,15.011 19.757,13.201 9.098,-1.81 15.01,-10.653 13.201,-19.754 -1.808,-9.1 -10.655,-15.01 -19.754,-13.201 z"
         id="path2-2"
         style="fill:#546e7a;fill-opacity:1" />
      <path
         d="m 153.611,166.057 c -0.15,-0.117 -0.306,-0.22 -0.461,-0.324 -1.707,-1.349 -3.731,-2.349 -6.004,-2.831 -2.228,-0.475 -4.439,-0.398 -6.511,0.111 l -23.086,4.233 c -0.681,0.125 -1.342,0.341 -1.965,0.644 l -16.832,8.167 c -3.811,1.849 -5.402,6.438 -3.552,10.249 1.326,2.732 4.06,4.323 6.906,4.323 1.124,0 2.265,-0.248 3.343,-0.771 l 15.894,-7.711 7.053,-1.294 -5.424,25.524 c -0.109,0.513 -0.187,1.024 -0.24,1.534 l -9.828,25.281 -20.706,17.365 c -3.864,3.24 -4.369,9 -1.128,12.863 1.806,2.154 4.394,3.264 7.001,3.264 2.07,0 4.152,-0.7 5.863,-2.135 l 22.5,-18.87 c 1.177,-0.987 2.086,-2.256 2.643,-3.688 l 7.008,-18.028 c 0.153,0.013 0.305,0.017 0.458,0.023 l 13.757,12.044 3.928,25.779 c 0.688,4.52 4.58,7.758 9.016,7.757 0.457,0 0.921,-0.034 1.387,-0.105 4.985,-0.759 8.411,-5.416 7.651,-10.401 l -4.431,-29.078 c -0.325,-2.131 -1.392,-4.077 -3.013,-5.496 l -13.372,-11.703 c 0.026,-0.111 0.061,-0.218 0.085,-0.33 l 5.202,-24.476 6.926,5.409 c 0.726,0.567 1.549,0.999 2.428,1.274 l 19.727,6.181 c 0.763,0.239 1.536,0.352 2.295,0.352 3.263,0 6.29,-2.1 7.317,-5.379 1.266,-4.042 -0.984,-8.346 -5.026,-9.612 l -18.397,-5.764 z"
         id="path3-2"
         style="fill:#546e7a;fill-opacity:1" />
      <path
         d="m 231.011,202.678 c 5.527,-1.1 9.12,-6.474 8.022,-12.004 -1.102,-5.53 -6.476,-9.122 -12.005,-8.023 -5.531,1.1 -9.125,6.475 -8.023,12.004 1.099,5.531 6.472,9.122 12.006,8.023 z"
         id="path4"
         style="fill:#546e7a;fill-opacity:1" />
      <path
         d="m 188.661,215.388 c 0.806,1.66 2.467,2.627 4.197,2.627 0.683,0 1.376,-0.15 2.031,-0.469 l 9.657,-4.686 4.286,-0.786 -3.297,15.511 c -0.066,0.313 -0.114,0.624 -0.146,0.936 l -5.971,15.36 -12.584,10.552 c -2.348,1.969 -2.655,5.469 -0.686,7.817 1.098,1.309 2.67,1.983 4.255,1.983 1.258,0 2.523,-0.426 3.563,-1.297 l 13.675,-11.467 c 0.715,-0.601 1.268,-1.371 1.606,-2.242 l 4.258,-10.955 c 0.093,0.008 0.186,0.011 0.278,0.015 l 8.361,7.317 2.386,15.666 c 0.418,2.746 2.783,4.714 5.479,4.714 0.278,0 0.559,-0.021 0.842,-0.064 3.03,-0.461 5.111,-3.291 4.65,-6.321 l -2.691,-17.67 c -0.197,-1.294 -0.846,-2.478 -1.831,-3.34 l -8.126,-7.112 c 0.016,-0.067 0.038,-0.133 0.052,-0.2 l 3.162,-14.874 4.21,3.288 c 0.441,0.345 0.941,0.606 1.475,0.773 l 11.987,3.756 c 0.464,0.145 0.933,0.215 1.395,0.215 1.983,0 3.822,-1.276 4.446,-3.269 0.77,-2.456 -0.598,-5.071 -3.054,-5.841 l -11.179,-3.503 -11.19,-8.739 c -0.042,-0.032 -0.088,-0.052 -0.13,-0.082 -1.066,-0.88 -2.351,-1.528 -3.797,-1.835 -1.356,-0.29 -2.702,-0.243 -3.963,0.068 l -14.023,2.571 c -0.414,0.076 -0.816,0.208 -1.194,0.392 l -10.227,4.963 c -2.319,1.124 -3.286,3.912 -2.162,6.228 z"
         id="path5"
         style="fill:#546e7a;fill-opacity:1" />
    </g>
  </g>
</svg>
