<?xml version="1.0" encoding="UTF-8" standalone="no"?>
<!-- Uploaded to: SVG Repo, www.svgrepo.com, Generator: SVG Repo Mixer Tools -->

<svg
   version="1.0"
   id="Layer_1"
   width="800px"
   height="800px"
   viewBox="0 0 64 64"
   enable-background="new 0 0 64 64"
   xml:space="preserve"
   sodipodi:docname="gare_location_15_bleue.svg"
   inkscape:version="1.3.2 (091e20e, 2023-11-25, custom)"
   inkscape:export-filename="..\gare_location_10_ouverte.png"
   inkscape:export-xdpi="96"
   inkscape:export-ydpi="96"
   xmlns:inkscape="http://www.inkscape.org/namespaces/inkscape"
   xmlns:sodipodi="http://sodipodi.sourceforge.net/DTD/sodipodi-0.dtd"
   xmlns="http://www.w3.org/2000/svg"
   xmlns:svg="http://www.w3.org/2000/svg"><defs
   id="defs3">
	
	
	
</defs><sodipodi:namedview
   id="namedview3"
   pagecolor="#ffffff"
   bordercolor="#000000"
   borderopacity="0.25"
   inkscape:showpageshadow="2"
   inkscape:pageopacity="0.0"
   inkscape:pagecheckerboard="0"
   inkscape:deskcolor="#d1d1d1"
   inkscape:zoom="0.93625"
   inkscape:cx="400"
   inkscape:cy="398.93191"
   inkscape:window-width="1920"
   inkscape:window-height="1017"
   inkscape:window-x="1912"
   inkscape:window-y="-8"
   inkscape:window-maximized="1"
   inkscape:current-layer="Layer_1"
   showguides="false" />

<path
   style="display:inline;fill:#ffffff;fill-opacity:1;stroke:none;stroke-width:0;stroke-dasharray:none;stroke-opacity:1"
   d="m 398.39786,794.30879 c -9.8159,-3.84864 -11.31651,-5.37813 -26.9018,-27.4196 -16.99112,-24.02969 -41.74376,-58.99893 -54.81276,-77.43659 -6.24594,-8.81175 -16.10443,-22.75033 -21.90774,-30.97463 -5.80331,-8.2243 -14.15774,-20 -18.56542,-26.16822 -4.40767,-6.16823 -10.71487,-15.06008 -14.01599,-19.75968 -3.30112,-4.6996 -13.14142,-18.63819 -21.86732,-30.97464 -8.72591,-12.33644 -18.57578,-26.27503 -21.8886,-30.97463 -3.31283,-4.6996 -14.19772,-20.08011 -24.18866,-34.1789 -27.27292,-38.48642 -36.75343,-54.02014 -52.15007,-85.44727 -15.09793,-30.8174 -24.84647,-60.61198 -30.15179,-92.15327 -2.39699,-14.25062 -2.69595,-57.1226 -0.50813,-72.86675 11.47242,-82.55849 51.7686,-152.03587 117.20296,-202.077578 32.34666,-24.737496 79.51241,-46.021009 118.98698,-53.692804 25.45819,-4.9477411 40.68384,-6.2131963 67.32375,-5.5955048 34.47162,0.7992828 55.89281,4.4271777 87.0494,14.7426948 46.34575,15.344436 87.14571,41.065879 121.34114,76.49686 43.27602,44.839682 70.14654,100.065002 80.58773,165.627022 2.36429,14.84582 3.22285,50.58836 1.57432,65.54001 -6.03208,54.70896 -28.64855,112.1049 -63.48908,161.12218 -25.21193,35.47077 -48.16746,67.88029 -86.62204,122.2964 -8.30272,11.74899 -20.55523,29.05206 -27.22779,38.45126 -6.67254,9.3992 -14.8451,20.93458 -18.16124,25.63418 -3.31613,4.6996 -13.16871,18.63819 -21.89462,30.97464 -21.43093,30.29846 -25.85034,36.56574 -40.66101,57.66246 -15.22153,21.68195 -21.40239,28.31736 -28.69081,30.80078 -5.99946,2.04422 -15.64633,2.22027 -20.36141,0.37158 z m 31.78546,-81.62521 C 478.52838,646.95246 586.96108,498.26505 598.23583,482.24299 635.65643,429.06621 659.26594,377.79315 667.09061,332.71028 672.9572,298.90907 668.62233,255.29469 655.6314,217.41593 628.4916,138.28207 562.97964,75.538882 482.24299,51.355512 440.24389,38.775353 387.67429,37.718874 344.45928,48.586505 277.31593,65.47159 218.26475,109.51241 183.00194,169.00263 c -26.51271,44.72834 -39.01195,95.29103 -36.01339,145.68362 1.85296,31.13998 11.55213,63.27397 30.58653,101.33511 16.58835,33.17003 25.43291,46.48121 85.16254,128.1709 25.34227,34.65954 54.66452,74.79305 65.16055,89.18558 46.37053,63.5849 79.71442,108.94526 80.08444,108.94526 0.2205,0 10.21082,-13.33779 22.20071,-29.63952 z"
   id="path3"
   inkscape:label="path3"
   transform="scale(0.08)" /><path
   style="display:inline;fill:#3187cc;fill-opacity:1;stroke:none;stroke-width:0;stroke-dasharray:none;stroke-opacity:1"
   d="m 379.70628,704.72362 c -31.57874,-43.44394 -38.40419,-52.80986 -43.82063,-60.13083 -2.17314,-2.93725 -27.62767,-37.78371 -56.56564,-77.43658 -28.93797,-39.65287 -53.93516,-73.79332 -55.54931,-75.86765 -5.93091,-7.62179 -23.37661,-33.99998 -31.4129,-47.49684 -16.34722,-27.45494 -30.81508,-59.9177 -38.4577,-86.29077 -11.81414,-40.76815 -9.79543,-92.17126 5.39319,-137.32828 31.85552,-94.7091 112.74877,-162.483965 211.33421,-177.062337 17.67672,-2.613954 56.82572,-2.636085 74.76636,-0.04227 114.01593,16.484186 204.59437,106.355047 221.63959,219.908187 7.97136,53.10418 -0.2081,96.44373 -29.06685,154.01333 -15.85955,31.6378 -27.78639,49.91168 -72.20409,110.62842 -19.13157,26.15188 -38.42024,52.53148 -42.86371,58.62133 -4.44347,6.08985 -11.68385,15.99564 -16.08972,22.01288 -4.40588,6.01724 -28.1976,38.61826 -52.8705,72.44674 -24.67289,33.82847 -45.34045,61.50367 -45.9279,61.50045 -0.58745,-0.003 -13.32443,-16.86733 -28.3044,-37.47579 z"
   id="path2"
   transform="scale(0.08)" /><path
   class="st0"
   d="M 43.354905,28.757143 V 13.292628 c 0,-2.932374 -2.376384,-5.3092902 -5.30929,-5.3092902 H 27.209744 c -2.931784,0 -5.30929,2.3769162 -5.30929,5.3092902 v 15.464515 c 0,2.223016 1.617753,4.075253 3.737854,4.443964 l -3.329679,5.030556 h 2.960437 l 1.366609,-2.065452 h 11.985131 l 1.366551,2.065452 h 2.959905 l -3.329088,-5.030556 c 2.119509,-0.369183 3.736731,-2.220948 3.736731,-4.443964 z M 28.030289,10.367048 h 9.194782 v 1.532503 h -9.194782 z m -2.766481,4.953045 c 0,-0.666645 0.539802,-1.207452 1.206447,-1.207452 h 12.315322 c 0.666172,0 1.20692,0.540807 1.20692,1.207452 v 5.092943 c 0,0.666645 -0.540807,1.20692 -1.20692,1.20692 H 26.470314 c -0.666645,0 -1.206447,-0.540275 -1.206447,-1.20692 v -5.092943 z m 1.149259,14.758938 c -0.777359,0 -1.407611,-0.630253 -1.407611,-1.407138 0,-0.77789 0.630252,-1.408202 1.407611,-1.408202 0.777417,0 1.407669,0.630253 1.407669,1.408202 0,0.776885 -0.630252,1.407138 -1.407669,1.407138 z m 1.111271,4.744497 1.028561,-1.554835 h 8.150093 l 1.028561,1.554835 z m 11.318486,-4.744497 c -0.777358,0 -1.40761,-0.630253 -1.40761,-1.407138 0,-0.77789 0.630252,-1.408202 1.40761,-1.408202 0.777418,0 1.40767,0.630253 1.40767,1.408202 0,0.776885 -0.630252,1.407138 -1.40767,1.407138 z"
   id="path1"
   style="display:inline;fill:#ffffff;fill-opacity:1;stroke:#073d16;stroke-width:0;stroke-dasharray:none;stroke-opacity:1" /></svg>
