<svg xmlns="http://www.w3.org/2000/svg" viewBox="0 0 66 66" id="authentication"><path fill="#D1D7EF" d="M61.259 12.114V50.33H40.703l-1.332 2.122H26.629l-1.332-2.122H4.74V12.114a2.792 2.792 0 0 1 2.786-2.787h50.945a2.792 2.792 0 0 1 2.787 2.787z"></path><path fill="#F0F7FE" d="M8.909 13.502h48.18v32.49H8.909z"></path><path fill="#CBD5DE" d="M43.408 37.34H22.585a1 1 0 1 1 0-2h20.823a1 1 0 1 1 0 2zm-4.265 4.652H26.85a1 1 0 1 1 0-2h12.292a1 1 0 1 1 0 2z"></path><path fill="#F19A99" d="M52.09 19.6v10.802c0 .61-.488 1.098-1.098 1.098H15.007c-.61 0-1.098-.488-1.098-1.098V19.6c0-.61.488-1.098 1.098-1.098h35.985c.61 0 1.098.488 1.098 1.098z"></path><path fill="#FFF" d="M52.09 19.6v2.124c0-.61-.488-1.098-1.098-1.098H15.007c-.61 0-1.098.488-1.098 1.098V19.6c0-.61.488-1.098 1.098-1.098h35.985c.61 0 1.098.488 1.098 1.098z" opacity=".3"></path><path d="M52.09 28.279v2.124c0 .61-.488 1.097-1.098 1.097H15.007c-.61 0-1.098-.488-1.098-1.097v-2.124c0 .61.488 1.097 1.098 1.097h35.985c.61 0 1.098-.488 1.098-1.097z" opacity=".1"></path><path fill="#6B6DAD" d="M50.99 17.505H15.01c-1.16 0-2.1.94-2.1 2.09v10.81c0 1.15.94 2.1 2.1 2.1h35.98c1.16 0 2.1-.95 2.1-2.1v-10.81c0-1.15-.94-2.09-2.1-2.09zm.1 12.9c0 .06-.04.1-.1.1H15.01c-.06 0-.1-.04-.1-.1v-10.81c0-.05.04-.09.1-.09h35.98c.06 0 .1.04.1.09v10.81z"></path><path fill="#F19A99" d="M22.572 22.056v5.886"></path><path fill="#6B6DAD" d="M22.572 28.942a1 1 0 0 1-1-1v-5.886a1 1 0 1 1 2 0v5.886a1 1 0 0 1-1 1z"></path><path fill="#F19A99" d="m20.023 23.527 5.098 2.944"></path><path fill="#6B6DAD" d="M25.12 27.47a.995.995 0 0 1-.499-.133l-5.098-2.943a1 1 0 1 1 1-1.733l5.098 2.943a1 1 0 0 1-.5 1.867z"></path><path fill="#F19A99" d="m20.023 26.471 5.098-2.944"></path><path fill="#6B6DAD" d="M20.023 27.47a1 1 0 0 1-.5-1.865l5.098-2.944a1 1 0 0 1 1 1.732l-5.099 2.944a.994.994 0 0 1-.499.134z"></path><path fill="#F19A99" d="M32.998 22.056v5.886"></path><path fill="#6B6DAD" d="M32.998 28.942a1 1 0 0 1-1-1v-5.886a1 1 0 1 1 2 0v5.886a1 1 0 0 1-1 1z"></path><path fill="#F19A99" d="m30.449 23.527 5.098 2.944"></path><path fill="#6B6DAD" d="M35.546 27.47a.995.995 0 0 1-.5-.133l-5.097-2.943a1 1 0 1 1 1-1.733l5.098 2.943a1 1 0 0 1-.501 1.867z"></path><path fill="#F19A99" d="m30.449 26.471 5.098-2.944"></path><path fill="#6B6DAD" d="M30.45 27.47a1 1 0 0 1-.5-1.865l5.097-2.944a1 1 0 1 1 1 1.732l-5.098 2.944a.995.995 0 0 1-.499.134z"></path><path fill="#F19A99" d="M43.425 22.056v5.886"></path><path fill="#6B6DAD" d="M43.425 28.942a1 1 0 0 1-1-1v-5.886a1 1 0 1 1 2 0v5.886a1 1 0 0 1-1 1z"></path><path fill="#F19A99" d="m40.876 23.527 5.098 2.944"></path><path fill="#6B6DAD" d="M45.973 27.47a.995.995 0 0 1-.5-.133l-5.097-2.943a1 1 0 1 1 1-1.733l5.098 2.943a1 1 0 0 1-.501 1.867z"></path><path fill="#F19A99" d="m40.876 26.471 5.098-2.944"></path><path fill="#6B6DAD" d="M40.877 27.47a1 1 0 0 1-.501-1.865l5.098-2.944a1 1 0 1 1 1 1.732l-5.098 2.944a.995.995 0 0 1-.499.134z"></path><path fill="#FAFEFF" d="M61.259 12.114v2.393a2.783 2.783 0 0 0-2.787-2.777H7.527a2.783 2.783 0 0 0-2.786 2.777v-2.393a2.792 2.792 0 0 1 2.786-2.787h50.945a2.792 2.792 0 0 1 2.787 2.787z"></path><path d="M61.26 48.54v2.48H40.7l-1.33 2.12H26.63l-1.33-2.12H4.74v-2.48h21.11c.6 0 1.15.31 1.46.82l.83 1.39h9.72l.83-1.39c.31-.51.86-.82 1.46-.82h21.11z" opacity=".1"></path><path fill="#FFF" d="M40.9 13.497 19.183 45.99H8.911V13.497zM56.758 13.497 35.042 45.99h-7.078l21.717-32.493z" opacity=".2"></path><path fill="#CBD5DE" d="M64 50.33v4.03a2.315 2.315 0 0 1-2.316 2.315H4.316A2.315 2.315 0 0 1 2 54.36v-4.03h23.297l1.332 2.122h12.742l1.332-2.122H64z"></path><path d="M64 52.064v2.296a2.315 2.315 0 0 1-2.316 2.315H4.316A2.315 2.315 0 0 1 2 54.36v-2.296a2.315 2.315 0 0 0 2.315 2.315h57.37A2.315 2.315 0 0 0 64 52.064z" opacity=".1"></path><g fill="#6B6DAD"><path d="M57.09 12.505H8.91c-.55 0-1 .44-1 1v32.49c0 .55.45 1 1 1h48.18c.55 0 1-.45 1-1v-32.49c0-.56-.45-1-1-1zm-1 32.49H9.91v-30.49h46.18v30.49z"></path><path d="M64 49.335h-1.74v-37.22c0-2.09-1.7-3.79-3.78-3.79H7.53c-2.09 0-3.79 1.7-3.79 3.79v37.22H2c-.55 0-1 .44-1 1v4.03c0 1.82 1.49 3.31 3.32 3.31h40.53c.55 0 1-.45 1-1s-.45-1-1-1H4.32c-.73 0-1.32-.59-1.32-1.31v-3.03h21.74l.34.53.7 1.11c.03.06.08.11.13.16.18.2.44.32.72.32h12.74c.34 0 .66-.18.85-.47l1.04-1.65H63v3.03c0 .72-.59 1.31-1.32 1.31h-5.61c-.55 0-1 .45-1 1s.45 1 1 1h5.61c1.83 0 3.32-1.49 3.32-3.31v-4.03c0-.56-.45-1-1-1zm-3.74-.01H40.71c-.26 0-.51.1-.69.28-.06.05-.12.12-.16.19l-.22.34-.82 1.31H27.18l-1.04-1.65a.994.994 0 0 0-.84-.47H5.74v-37.21c0-.98.8-1.79 1.79-1.79h50.95c.98 0 1.78.81 1.78 1.79v37.21z"></path></g><path fill="#6B6DAD" d="M52.163 57.675h-3.406a1 1 0 1 1 0-2h3.406a1 1 0 1 1 0 2z"></path></svg>