<svg xmlns="http://www.w3.org/2000/svg" viewBox="0 0 48 48" id="mail"><polygon fill="#417ace" points="45 25 25 12 23 12 3 25 3 35 45 35 45 25"></polygon><path fill="#e0e9f5" d="M9,36V4a1,1,0,0,1,1-1H31l8,8V36a1,1,0,0,1-1,1H10A1,1,0,0,1,9,36Z"></path><path fill="#b3d9ff" d="M39,11H32a1,1,0,0,1-1-1V3Z"></path><path fill="#70a9ed" d="M33 16H19a1 1 0 0 1 0-2H33a1 1 0 0 1 0 2zM33 20H15a1 1 0 0 1 0-2H33a1 1 0 0 1 0 2zM33 24H15a1 1 0 0 1 0-2H33a1 1 0 0 1 0 2zM45 44V25L28 32H20L3 25V44a1 1 0 0 0 1 1H44A1 1 0 0 0 45 44z"></path><path fill="#b3d9ff" d="M44.67,44.75A1.043,1.043,0,0,1,44,45H4a1.043,1.043,0,0,1-.67-.25L23.394,29.462a1,1,0,0,1,1.212,0Z"></path></svg>